# xmcd
#
# Track frame offsets:
#	150
#	8320
#	20502
#	31768
#	48569
#	62582
#	76085
#	88137
#	116255
#	128417
#	141566
#	154491
#	172448
#	189725
#	204763
#	221724
#	240672
#
# Disc length: 3368 seconds
#
# Revision: 1
# Processed by: cddbd v1.5.2PL0 Copyright (c) Steve Scherf et al.
# Submitted via: audiograbber 1.83.01
#
DISCID=e20d2611
DTITLE=The Wilders - Throw Down
DYEAR=2005
DGENRE=Country
TTITLE0=Hawk's Got a Chicken and Flew in the Woods
TTITLE1=Honky Tonk Habit
TTITLE2=It'll Never Be Thru With Us
TTITLE3=Won't You Sometimes Think of Me
TTITLE4=Squirrel Hunters
TTITLE5=Belshazzar
TTITLE6=Jenny on the Railroad
TTITLE7=Together Apart
TTITLE8=Blues Come Around
TTITLE9=Goat Creek
TTITLE10=Drivin' Nails in My Coffin
TTITLE11=When I Get to Heaven
TTITLE12=When the Levee's Gone
TTITLE13=January Waltz
TTITLE14=I'm Gonna Find Her
TTITLE15=How Mountain Girls Can Love
TTITLE16=Honky Tonk Habit
EXTD=
EXTT0=
EXTT1=
EXTT2=
EXTT3=
EXTT4=
EXTT5=
EXTT6=
EXTT7=
EXTT8=
EXTT9=
EXTT10=
EXTT11=
EXTT12=
EXTT13=
EXTT14=
EXTT15=
EXTT16=
PLAYORDER=
